<svg width="179" height="100" viewBox="0 0 179 100" fill="none" xmlns="http://www.w3.org/2000/svg">
<path fill-rule="evenodd" clip-rule="evenodd" d="M89.5799 54.6623L102.851 67.9339L106.387 64.3984L93.1154 51.1268L106.95 37.2926L103.414 33.7571L89.5799 47.5912L75.5355 33.5469L72 37.0824L86.0444 51.1268L72.5625 64.6086L76.0981 68.1441L89.5799 54.6623Z" fill="#D70000"/>
<path d="M102.851 67.9339L102.675 68.1107L102.851 68.2875L103.028 68.1107L102.851 67.9339ZM89.5799 54.6623L89.7567 54.4855L89.5799 54.3088L89.4031 54.4855L89.5799 54.6623ZM106.387 64.3984L106.564 64.5751L106.741 64.3984L106.564 64.2216L106.387 64.3984ZM93.1154 51.1268L92.9387 50.95L92.7619 51.1268L92.9387 51.3035L93.1154 51.1268ZM106.95 37.2926L107.126 37.4694L107.303 37.2926L107.126 37.1159L106.95 37.2926ZM103.414 33.7571L103.591 33.5803L103.414 33.4036L103.237 33.5803L103.414 33.7571ZM89.5799 47.5912L89.4031 47.768L89.5799 47.9448L89.7567 47.768L89.5799 47.5912ZM75.5355 33.5469L75.7123 33.3701L75.5355 33.1933L75.3588 33.3701L75.5355 33.5469ZM72 37.0824L71.8232 36.9056L71.6464 37.0824L71.8232 37.2592L72 37.0824ZM86.0444 51.1268L86.2211 51.3035L86.3979 51.1268L86.2211 50.95L86.0444 51.1268ZM72.5625 64.6086L72.3858 64.4318L72.209 64.6086L72.3858 64.7854L72.5625 64.6086ZM76.0981 68.1441L75.9213 68.3209L76.0981 68.4977L76.2749 68.3209L76.0981 68.1441ZM103.028 67.7571L89.7567 54.4855L89.4031 54.8391L102.675 68.1107L103.028 67.7571ZM106.21 64.2216L102.675 67.7571L103.028 68.1107L106.564 64.5751L106.21 64.2216ZM92.9387 51.3035L106.21 64.5751L106.564 64.2216L93.2922 50.95L92.9387 51.3035ZM106.773 37.1159L92.9387 50.95L93.2922 51.3035L107.126 37.4694L106.773 37.1159ZM103.237 33.9339L106.773 37.4694L107.126 37.1159L103.591 33.5803L103.237 33.9339ZM89.7567 47.768L103.591 33.9339L103.237 33.5803L89.4031 47.4145L89.7567 47.768ZM75.3588 33.7237L89.4031 47.768L89.7567 47.4145L75.7123 33.3701L75.3588 33.7237ZM72.1768 37.2592L75.7123 33.7237L75.3588 33.3701L71.8232 36.9056L72.1768 37.2592ZM86.2211 50.95L72.1768 36.9056L71.8232 37.2592L85.8676 51.3035L86.2211 50.95ZM72.7393 64.7854L86.2211 51.3035L85.8676 50.95L72.3858 64.4318L72.7393 64.7854ZM76.2749 67.9674L72.7393 64.4318L72.3858 64.7854L75.9213 68.3209L76.2749 67.9674ZM89.4031 54.4855L75.9213 67.9674L76.2749 68.3209L89.7567 54.8391L89.4031 54.4855Z" fill="#D7D7D7"/>
</svg>
