<svg width="17" height="21" viewBox="0 0 17 21" fill="none" xmlns="http://www.w3.org/2000/svg">
<path d="M0.166504 17.3785V15.8485H2.354V8.04579C2.354 6.61784 2.78369 5.34713 3.64307 4.23367C4.50244 3.12021 5.63525 2.41898 7.0415 2.12999V1.39052C7.0415 0.99953 7.18473 0.676541 7.47119 0.421549C7.75765 0.166558 8.10053 0.0390625 8.49984 0.0390625C8.89914 0.0390625 9.24203 0.166558 9.52848 0.421549C9.81494 0.676541 9.95817 0.99953 9.95817 1.39052V2.12999C11.3644 2.41898 12.5016 3.12021 13.3696 4.23367C14.2377 5.34713 14.6717 6.61784 14.6717 8.04579V15.8485H16.8332V17.3785H0.166504ZM8.49984 20.4384C7.94428 20.4384 7.45817 20.2386 7.0415 19.8391C6.62484 19.4397 6.4165 18.9594 6.4165 18.3984H10.5832C10.5832 18.9594 10.3792 19.4397 9.97119 19.8391C9.56321 20.2386 9.07275 20.4384 8.49984 20.4384ZM3.9165 15.8485H13.1092V8.04579C13.1092 6.78783 12.6665 5.71687 11.7811 4.8329C10.8957 3.94893 9.8106 3.50694 8.52588 3.50694C7.24116 3.50694 6.15175 3.94893 5.25765 4.8329C4.36355 5.71687 3.9165 6.78783 3.9165 8.04579V15.8485Z" fill="white"/>
</svg>
