<svg width="18" height="21" viewBox="0 0 18 21" fill="none" xmlns="http://www.w3.org/2000/svg">
<path d="M1.4004 20.8523C1.26485 20.9405 1.10721 20.9911 0.944326 20.9989C0.781442 21.0067 0.619437 20.9714 0.475623 20.8966C0.33181 20.8219 0.211593 20.7106 0.12782 20.5746C0.0440473 20.4386 -0.000133089 20.283 3.01156e-07 20.1245V3.51826C-1.60591e-06 2.59147 0.378294 1.70255 1.05187 1.04656C1.72544 0.390567 2.63927 0.0211052 3.5928 0.0192516L14.3928 7.0126e-06C14.8656 -0.000912899 15.3339 0.0886812 15.771 0.263673C16.2081 0.438665 16.6055 0.695629 16.9405 1.01989C17.2755 1.34415 17.5414 1.72937 17.7232 2.15353C17.905 2.5777 17.9991 3.03252 18 3.49201V20.1228C18.0001 20.2813 17.956 20.4369 17.8722 20.5728C17.7884 20.7088 17.6682 20.8202 17.5244 20.8949C17.3806 20.9696 17.2186 21.005 17.0557 20.9972C16.8928 20.9894 16.7352 20.9387 16.5996 20.8506L9 15.917L1.4004 20.8506V20.8523Z" fill="#6E9972"/>
</svg>
