<?xml version="1.0" encoding="UTF-8" standalone="no"?>
<svg
   height="36"
   width="40"
   version="1.1"
   id="svg4"
   sodipodi:docname="like.svg"
   inkscape:version="1.2 (dc2aeda, 2022-05-15)"
   xmlns:inkscape="http://www.inkscape.org/namespaces/inkscape"
   xmlns:sodipodi="http://sodipodi.sourceforge.net/DTD/sodipodi-0.dtd"
   xmlns="http://www.w3.org/2000/svg"
   xmlns:svg="http://www.w3.org/2000/svg">
  <defs
     id="defs8" />
  <sodipodi:namedview
     id="namedview6"
     pagecolor="#ffffff"
     bordercolor="#000000"
     borderopacity="0.25"
     inkscape:showpageshadow="2"
     inkscape:pageopacity="0.0"
     inkscape:pagecheckerboard="0"
     inkscape:deskcolor="#d1d1d1"
     showgrid="false"
     inkscape:zoom="4.9166667"
     inkscape:cx="23.898305"
     inkscape:cy="24"
     inkscape:window-width="1309"
     inkscape:window-height="456"
     inkscape:window-x="105"
     inkscape:window-y="226"
     inkscape:window-maximized="0"
     inkscape:current-layer="svg4" />
  <path
     d="M 17.95,34.9 15.3,32.45 Q 9.1,26.7 4.55,21.475 0,16.25 0,10.55 0,6.05 3.025,3.025 6.05,0 10.5,0 13.05,0 15.55,1.225 18.05,2.45 20,5.25 22.2,2.45 24.55,1.225 26.9,0 29.5,0 33.95,0 36.975,3.025 40,6.05 40,10.55 40,16.25 35.45,21.475 30.9,26.7 24.7,32.45 l -2.65,2.45 q -0.85,0.8 -2.05,0.8 -1.2,0 -2.05,-0.8 z M 18.7,8.55 Q 17.35,6.1 15.15,4.55 12.95,3 10.5,3 7.2,3 5.1,5.125 3,7.25 3,10.55 3,13.45 4.95,16.625 6.9,19.8 9.6,22.8 q 2.7,3 5.6,5.575 2.9,2.575 4.8,4.325 1.9,-1.7 4.8,-4.3 2.9,-2.6 5.6,-5.625 2.7,-3.025 4.65,-6.2 Q 37,13.4 37,10.55 37,7.25 34.875,5.125 32.75,3 29.5,3 27,3 24.825,4.525 22.65,6.05 21.2,8.55 20.95,8.95 20.65,9.125 20.35,9.3 19.95,9.3 19.55,9.3 19.225,9.125 18.9,8.95 18.7,8.55 Z m 1.3,9.3 z"
     id="path2"
     style="fill:#ffffff" />
</svg>
