<?xml version="1.0" encoding="UTF-8" standalone="no"?>
<svg
   width="24"
   height="21"
   viewBox="0 0 24 21"
   fill="none"
   version="1.1"
   id="svg4"
   sodipodi:docname="like-button.svg"
   inkscape:version="1.2 (dc2aeda, 2022-05-15)"
   xmlns:inkscape="http://www.inkscape.org/namespaces/inkscape"
   xmlns:sodipodi="http://sodipodi.sourceforge.net/DTD/sodipodi-0.dtd"
   xmlns="http://www.w3.org/2000/svg"
   xmlns:svg="http://www.w3.org/2000/svg">
  <defs
     id="defs8" />
  <sodipodi:namedview
     id="namedview6"
     pagecolor="#ffffff"
     bordercolor="#000000"
     borderopacity="0.25"
     inkscape:showpageshadow="2"
     inkscape:pageopacity="0.0"
     inkscape:pagecheckerboard="0"
     inkscape:deskcolor="#d1d1d1"
     showgrid="false"
     inkscape:zoom="11.238095"
     inkscape:cx="8.9427966"
     inkscape:cy="10.5"
     inkscape:window-width="1309"
     inkscape:window-height="456"
     inkscape:window-x="0"
     inkscape:window-y="0"
     inkscape:window-maximized="0"
     inkscape:current-layer="svg4" />
  <path
     fill-rule="evenodd"
     clip-rule="evenodd"
     d="m 6.257455,1.63636 c -2.268005,0 -4.621095,2.05091 -4.621095,4.92437 0,3.3894499 2.53528,6.50177 5.302913,8.85817 1.548217,1.308 3.215907,2.4677 4.981087,3.4636 L 12,18.9273 12.07964,18.8836 c 0.29563,-0.1669 0.72109,-0.4145 1.23272,-0.7352 1.02546,-0.6415 2.38909,-1.572 3.74834,-2.7295 2.7677,-2.3564 5.3029,-5.4687201 5.3029,-8.85817 0,-2.87346 -2.3531,-4.92437 -4.6211,-4.92437 -2.29741,0 -4.1465,1.51528 -4.96686,3.97419 C 12.72108,5.77305 12.61686,5.91432 12.47769,6.0144 12.33851,6.11448 12.17142,6.16832 12,6.16832 11.82858,6.16832 11.66149,6.11448 11.52232,6.0144 11.38314,5.91432 11.27892,5.77305 11.22436,5.61055 10.404,3.15164 8.55382,1.63636 6.257455,1.63636 Z M 12,19.8578 12.37418,20.5855 C 12.25844,20.645 12.13016,20.676 12,20.676 c -0.13016,0 -0.25843,-0.031 -0.37418,-0.0905 z M 0,6.55964 C 0,2.78509 3.08618,0 6.257455,0 8.76,0 10.77927,1.33745 12,3.38727 13.22182,1.33745 15.24,0 17.7425,0 20.9127,0 24,2.784 24,6.56073 c 0,4.16507 -3.0556,7.70177 -5.8789,10.10397 -1.7653,1.4911 -3.67812,2.7983 -5.70874,3.9011 l -0.02727,0.0142 -0.0076,0.0033 -0.0022,0.0011 -0.37527,-0.7266 -0.37418,0.7277 -0.0033,-0.0022 -0.0076,-0.0033 -0.02727,-0.0142 C 10.98701,20.2415 10.39689,19.8981 9.81821,19.536 8.43807,18.6745 7.1216,17.7149 5.878939,16.6647 3.05458,14.2615 3e-5,10.7258 3e-5,6.56073 Z"
     fill="#000000"
     id="path2" />
</svg>
