<?xml version="1.0" encoding="UTF-8" standalone="no"?>
<svg
   width="15"
   height="15"
   viewBox="0 0 15 15"
   fill="none"
   version="1.1"
   id="svg4"
   sodipodi:docname="menu.svg"
   inkscape:version="1.2 (dc2aeda, 2022-05-15)"
   xmlns:inkscape="http://www.inkscape.org/namespaces/inkscape"
   xmlns:sodipodi="http://sodipodi.sourceforge.net/DTD/sodipodi-0.dtd"
   xmlns="http://www.w3.org/2000/svg"
   xmlns:svg="http://www.w3.org/2000/svg">
  <defs
     id="defs8" />
  <sodipodi:namedview
     id="namedview6"
     pagecolor="#ffffff"
     bordercolor="#000000"
     borderopacity="0.25"
     inkscape:showpageshadow="2"
     inkscape:pageopacity="0.0"
     inkscape:pagecheckerboard="0"
     inkscape:deskcolor="#d1d1d1"
     showgrid="false"
     inkscape:zoom="13.297274"
     inkscape:cx="-1.5416694"
     inkscape:cy="9.0996096"
     inkscape:window-width="1309"
     inkscape:window-height="456"
     inkscape:window-x="0"
     inkscape:window-y="0"
     inkscape:window-maximized="0"
     inkscape:current-layer="svg4"
     showguides="false" />
  <path
     d="m 0.50000249,7.4974182 c 5.81e-4,-0.277781 0.10315801,-0.51364 0.30772801,-0.707581 0.20458,-0.1939412 0.4527,-0.2905519 0.74436,-0.2898332 0.29167,7.187e-4 0.53938,0.098551 0.74314,0.2934982 0.20376,0.194947 0.30535,0.43131 0.30476,0.7090861 -5.8e-4,0.27778 -0.10315,0.51364 -0.30773,0.70758 -0.20457,0.19394 -0.45269,0.29055 -0.74435,0.28983 -0.29167,-7.2e-4 -0.53938,-0.09855 -0.74314,-0.2935 -0.20376,-0.19494 -0.30535001,-0.43131 -0.30476801,-0.7090801 z m 5.94997801,0.01466 c 5.8e-4,-0.2777791 0.10316,-0.5136391 0.30774,-0.7075801 0.20457,-0.193941 0.45269,-0.2905513 0.74435,-0.2898326 0.29167,7.187e-4 0.53938,0.098552 0.74314,0.2934986 0.20376,0.194947 0.30535,0.431309 0.30477,0.7090841 -5.8e-4,0.27778 -0.10316,0.51364 -0.30773,0.70758 -0.20458,0.19394 -0.4527,0.29055 -0.74436,0.28983 -0.29167,-7.2e-4 -0.53938,-0.09855 -0.74314,-0.2935 -0.20376,-0.19494 -0.30535,-0.4313 -0.30477,-0.70908 z m 5.9500295,0.01466 c 5e-4,-0.2777781 0.1031,-0.5136371 0.3077,-0.7075781 0.2046,-0.193941 0.4527,-0.2905518 0.7443,-0.2898331 0.2917,7.187e-4 0.5394,0.098551 0.7432,0.2934981 0.2037,0.194947 0.3053,0.43131 0.3047,0.7090831 -5e-4,0.27778 -0.1031,0.51364 -0.3077,0.70758 -0.2046,0.19394 -0.4527,0.29055 -0.7443,0.28983 -0.2917,-7.1e-4 -0.5394,-0.09855 -0.7432,-0.29349 -0.2037,-0.19495 -0.3053,-0.43131 -0.3047,-0.70909 z"
     fill="#000000"
     id="path2" />
</svg>
