<svg width="40" height="24" viewBox="0 0 40 24" fill="none" xmlns="http://www.w3.org/2000/svg">
<path d="M36.25 23.2873L39.4798 19.25H36.25V23.2873Z" fill="#D66800" stroke="#D66800" stroke-width="0.5"/>
<path fill-rule="evenodd" clip-rule="evenodd" d="M40 18.9507C39.6799 18.9833 39.3551 19 39.0264 19H9.5C4.2533 19 -3.57628e-07 14.7467 -3.57628e-07 9.5C-3.57628e-07 4.2533 4.2533 0 9.50001 0H39.0264C39.3551 0 39.6799 0.016694 40 0.0492805V18.9507Z" fill="#ED7604"/>
<path d="M15.453 5.17969V13H14.1048L10.5975 7.39795V13H9.24938V5.17969H10.5975L14.1156 10.7925V5.17969H15.453ZM19.6021 13.1074C19.1724 13.1074 18.7839 13.0376 18.4365 12.8979C18.0928 12.7547 17.7992 12.556 17.5557 12.3018C17.3158 12.0475 17.1313 11.7485 17.0024 11.4048C16.8735 11.061 16.8091 10.6904 16.8091 10.293V10.0781C16.8091 9.62337 16.8753 9.21159 17.0078 8.84277C17.1403 8.47396 17.3247 8.15885 17.561 7.89746C17.7974 7.63249 18.0767 7.43018 18.3989 7.29053C18.7212 7.15088 19.0703 7.08105 19.4463 7.08105C19.8617 7.08105 20.2251 7.15088 20.5366 7.29053C20.8481 7.43018 21.106 7.62712 21.3101 7.88135C21.5177 8.132 21.6717 8.43099 21.772 8.77832C21.8758 9.12565 21.9277 9.50879 21.9277 9.92773V10.481H17.4375V9.55176H20.6494V9.44971C20.6423 9.21696 20.5957 8.99854 20.5098 8.79443C20.4274 8.59033 20.3003 8.42562 20.1284 8.30029C19.9565 8.17497 19.7274 8.1123 19.4409 8.1123C19.2261 8.1123 19.0345 8.15885 18.8662 8.25195C18.7015 8.34147 18.5636 8.47217 18.4526 8.64404C18.3416 8.81592 18.2557 9.0236 18.1948 9.26709C18.1375 9.507 18.1089 9.77734 18.1089 10.0781V10.293C18.1089 10.5472 18.1429 10.7835 18.2109 11.002C18.2826 11.2168 18.3864 11.4048 18.5225 11.5659C18.6585 11.7271 18.8232 11.8542 19.0166 11.9473C19.21 12.0368 19.4302 12.0815 19.6772 12.0815C19.9888 12.0815 20.2663 12.0189 20.5098 11.8936C20.7533 11.7682 20.9645 11.591 21.1436 11.3618L21.8257 12.0225C21.7004 12.2051 21.5374 12.3805 21.3369 12.5488C21.1364 12.7135 20.8911 12.8478 20.6011 12.9517C20.3146 13.0555 19.9816 13.1074 19.6021 13.1074ZM24.6266 11.7109L25.9694 7.18848H26.7965L26.5709 8.54199L25.2174 13H24.4762L24.6266 11.7109ZM23.8371 7.18848L24.8844 11.7324L24.9704 13H24.1432L22.5695 7.18848H23.8371ZM28.0534 11.6787L29.0685 7.18848H30.3307L28.7623 13H27.9352L28.0534 11.6787ZM26.9362 7.18848L28.2628 11.6572L28.4293 13H27.6881L26.3185 8.53662L26.0929 7.18848H26.9362Z" fill="white"/>
</svg>
