<?xml version="1.0" encoding="UTF-8" standalone="no"?>
<svg
   height="37"
   width="37"
   version="1.1"
   id="svg4"
   sodipodi:docname="search_FILL0_wght500_GRAD0_opsz48.svg"
   inkscape:version="1.2 (dc2aeda, 2022-05-15)"
   xmlns:inkscape="http://www.inkscape.org/namespaces/inkscape"
   xmlns:sodipodi="http://sodipodi.sourceforge.net/DTD/sodipodi-0.dtd"
   xmlns="http://www.w3.org/2000/svg"
   xmlns:svg="http://www.w3.org/2000/svg">
  <defs
     id="defs8" />
  <sodipodi:namedview
     id="namedview6"
     pagecolor="#ffffff"
     bordercolor="#000000"
     borderopacity="0.25"
     inkscape:showpageshadow="2"
     inkscape:pageopacity="0.0"
     inkscape:pagecheckerboard="0"
     inkscape:deskcolor="#d1d1d1"
     showgrid="false"
     inkscape:zoom="4.9166667"
     inkscape:cx="54.813559"
     inkscape:cy="24.101695"
     inkscape:window-width="1309"
     inkscape:window-height="779"
     inkscape:window-x="69"
     inkscape:window-y="10"
     inkscape:window-maximized="0"
     inkscape:current-layer="svg4" />
  <path
     d="M 34.1,36.55 20.85,23.35 Q 19.4,24.6 17.4,25.3 15.4,26 13.15,26 7.65,26 3.825,22.2 0,18.4 0,13 0,7.5999999 3.825,3.8 7.65,0 13.05,0 q 5.4,0 9.2,3.8 3.8,3.7999999 3.8,9.2 0,2.15 -0.7,4.15 -0.7,2 -2.05,3.75 L 36.6,34.05 Z M 13.1,22.6 q 3.95,0 6.725,-2.825 Q 22.6,16.95 22.6,13 22.6,9.05 19.825,6.225 17.05,3.4 13.1,3.4 9.05,3.4 6.25,6.225 3.45,9.05 3.45,13 q 0,3.95 2.8,6.775 2.8,2.825 6.85,2.825 z"
     id="path2" />
</svg>
