<svg width="17" height="16" viewBox="0 0 17 16" fill="none" xmlns="http://www.w3.org/2000/svg">
<path d="M5.08749 15.157C4.67915 15.4633 4.26717 15.4706 3.85155 15.1789C3.43592 14.8872 3.30832 14.5008 3.46874 14.0195L4.78124 9.75391L1.43436 7.34766C1.01144 7.05599 0.872903 6.66953 1.01874 6.18828C1.16457 5.70703 1.49269 5.46641 2.00311 5.46641H6.15936L7.51561 0.982031C7.57394 0.734115 7.70155 0.548177 7.89842 0.424219C8.0953 0.30026 8.29582 0.238281 8.49999 0.238281C8.70415 0.238281 8.90467 0.30026 9.10155 0.424219C9.29842 0.548177 9.43332 0.734115 9.50624 0.982031L10.8406 5.46641H14.9969C15.5073 5.46641 15.8354 5.70703 15.9812 6.18828C16.1271 6.66953 15.9885 7.05599 15.5656 7.34766L12.2187 9.75391L13.5312 13.9977C13.6917 14.4935 13.564 14.8836 13.1484 15.168C12.7328 15.4523 12.3281 15.4414 11.9344 15.1352L8.52186 12.5539L5.08749 15.157Z" fill="#FFBE14"/>
</svg>
