<?xml version="1.0" encoding="UTF-8" standalone="no"?>
<svg
   height="40"
   width="40"
   version="1.1"
   id="svg4"
   sodipodi:docname="setting.svg"
   inkscape:version="1.2 (dc2aeda, 2022-05-15)"
   xmlns:inkscape="http://www.inkscape.org/namespaces/inkscape"
   xmlns:sodipodi="http://sodipodi.sourceforge.net/DTD/sodipodi-0.dtd"
   xmlns="http://www.w3.org/2000/svg"
   xmlns:svg="http://www.w3.org/2000/svg">
  <defs
     id="defs8" />
  <sodipodi:namedview
     id="namedview6"
     pagecolor="#ffffff"
     bordercolor="#000000"
     borderopacity="0.25"
     inkscape:showpageshadow="2"
     inkscape:pageopacity="0.0"
     inkscape:pagecheckerboard="0"
     inkscape:deskcolor="#d1d1d1"
     showgrid="false"
     inkscape:zoom="4.9166667"
     inkscape:cx="24"
     inkscape:cy="24"
     inkscape:window-width="1309"
     inkscape:window-height="456"
     inkscape:window-x="0"
     inkscape:window-y="0"
     inkscape:window-maximized="0"
     inkscape:current-layer="svg4" />
  <path
     d="m 15.400001,40 -1,-6.3 q -0.95,-0.35 -2,-0.95 -1.05,-0.6 -1.85,-1.25 L 4.65,34.2 0,26 5.4,22.05 Q 5.3,21.6 5.275,21.025 5.25,20.45 5.25,20 5.25,19.55 5.275,18.975 5.3,18.4 5.4,17.95 L 0,14 4.65,5.8 10.550001,8.5000003 q 0.8,-0.65 1.85,-1.25 1.05,-0.6000005 2,-0.9000005 L 15.400001,0 h 9.2 l 1,6.2999998 q 0.95,0.35 2.025,0.9250005 1.075,0.575 1.825,1.275 l 5.9,-2.7000003 4.65,8.2 -5.4,3.85 q 0.1,0.5 0.125,1.075 0.025,0.575 0.025,1.075 0,0.5 -0.025,1.05 -0.025,0.55 -0.125,1.05 l 5.4,3.9 -4.65,8.2 -5.9,-2.7 q -0.8,0.65 -1.825,1.275 -1.025,0.625 -2.025,0.925 l -1,6.3 z m 4.6,-13.5 q 2.7,0 4.6,-1.9 1.9,-1.9 1.9,-4.6 0,-2.7 -1.9,-4.6 -1.9,-1.9 -4.6,-1.9 -2.7,0 -4.6,1.9 -1.9,1.9 -1.9,4.6 0,2.7 1.9,4.6 1.9,1.9 4.6,1.9 z m 0,-3 q -1.45,0 -2.475,-1.025 -1.025,-1.025 -1.025,-2.475 0,-1.45 1.025,-2.475 1.025,-1.025 2.475,-1.025 1.45,0 2.475,1.025 1.025,1.025 1.025,2.475 0,1.45 -1.025,2.475 -1.025,1.025 -2.475,1.025 z m 0,-3.5 z m -2.2,17 h 4.4 l 0.7,-5.6 q 1.65,-0.4 3.125,-1.25 1.475,-0.85 2.675,-2.05 l 5.3,2.3 2,-3.6 -4.7,-3.45 q 0.2,-0.85 0.325,-1.675 0.125,-0.825 0.125,-1.675 0,-0.85 -0.1,-1.675 -0.1,-0.825 -0.35,-1.675 l 4.7,-3.45 -2,-3.5999997 -5.3,2.2999997 q -1.15,-1.3 -2.6,-2.1749997 -1.45,-0.875 -3.2,-1.125 L 22.200001,3 h -4.4 l -0.7,5.6000003 q -1.7,0.35 -3.175,1.2 Q 12.450001,10.65 11.300001,11.9 L 6,9.6000003 4,13.2 8.7000008,16.65 q -0.2,0.85 -0.325,1.675 -0.125,0.825 -0.125,1.675 0,0.85 0.125,1.675 0.125,0.825 0.325,1.675 L 4,26.8 l 2,3.6 5.300001,-2.3 q 1.2,1.2 2.675,2.05 1.475,0.85 3.125,1.25 z"
     id="path2" />
</svg>
